<mxfile host="app.diagrams.net" modified="2022-06-25T09:55:51.762Z" agent="5.0 (Windows)" etag="hgrWcXZKY_PEfzr5Sgk5" version="20.0.3" type="github">
  <diagram id="YZ3xRYDXwZL4NXvIGYeZ" name="Page-1">
    <mxGraphModel dx="1422" dy="790" grid="1" gridSize="10" guides="1" tooltips="1" connect="1" arrows="1" fold="1" page="1" pageScale="1" pageWidth="827" pageHeight="1169" math="0" shadow="0">
      <root>
        <mxCell id="0" />
        <mxCell id="1" parent="0" />
        <mxCell id="5GykpBqM6NqBCuTMOYbl-3" value="" style="edgeStyle=orthogonalEdgeStyle;rounded=0;orthogonalLoop=1;jettySize=auto;html=1;" edge="1" parent="1" source="5GykpBqM6NqBCuTMOYbl-1" target="5GykpBqM6NqBCuTMOYbl-2">
          <mxGeometry relative="1" as="geometry" />
        </mxCell>
        <mxCell id="5GykpBqM6NqBCuTMOYbl-1" value="生成随机分子构型" style="rounded=1;whiteSpace=wrap;html=1;" vertex="1" parent="1">
          <mxGeometry x="340" y="50" width="120" height="60" as="geometry" />
        </mxCell>
        <mxCell id="5GykpBqM6NqBCuTMOYbl-5" value="" style="edgeStyle=orthogonalEdgeStyle;rounded=0;orthogonalLoop=1;jettySize=auto;html=1;" edge="1" parent="1" source="5GykpBqM6NqBCuTMOYbl-2" target="5GykpBqM6NqBCuTMOYbl-4">
          <mxGeometry relative="1" as="geometry" />
        </mxCell>
        <mxCell id="5GykpBqM6NqBCuTMOYbl-2" value="&lt;div&gt;随机改变坐标&lt;/div&gt;&lt;div&gt;产生新的构型&lt;br&gt;&lt;/div&gt;" style="whiteSpace=wrap;html=1;rounded=1;" vertex="1" parent="1">
          <mxGeometry x="340" y="140" width="120" height="60" as="geometry" />
        </mxCell>
        <mxCell id="5GykpBqM6NqBCuTMOYbl-7" value="" style="edgeStyle=orthogonalEdgeStyle;rounded=0;orthogonalLoop=1;jettySize=auto;html=1;" edge="1" parent="1" source="5GykpBqM6NqBCuTMOYbl-4" target="5GykpBqM6NqBCuTMOYbl-6">
          <mxGeometry relative="1" as="geometry" />
        </mxCell>
        <mxCell id="5GykpBqM6NqBCuTMOYbl-4" value="计算新构型能量" style="whiteSpace=wrap;html=1;rounded=1;" vertex="1" parent="1">
          <mxGeometry x="340" y="220" width="120" height="60" as="geometry" />
        </mxCell>
        <mxCell id="5GykpBqM6NqBCuTMOYbl-9" value="" style="edgeStyle=orthogonalEdgeStyle;rounded=0;orthogonalLoop=1;jettySize=auto;html=1;" edge="1" parent="1" source="5GykpBqM6NqBCuTMOYbl-6" target="5GykpBqM6NqBCuTMOYbl-8">
          <mxGeometry relative="1" as="geometry" />
        </mxCell>
        <mxCell id="5GykpBqM6NqBCuTMOYbl-6" value="&lt;div&gt;比较新构型与&lt;/div&gt;&lt;div&gt;旧构型的能量变化&lt;/div&gt;" style="whiteSpace=wrap;html=1;rounded=1;" vertex="1" parent="1">
          <mxGeometry x="340" y="300" width="120" height="60" as="geometry" />
        </mxCell>
        <mxCell id="5GykpBqM6NqBCuTMOYbl-11" value="" style="edgeStyle=orthogonalEdgeStyle;rounded=0;orthogonalLoop=1;jettySize=auto;html=1;" edge="1" parent="1" source="5GykpBqM6NqBCuTMOYbl-8" target="5GykpBqM6NqBCuTMOYbl-10">
          <mxGeometry relative="1" as="geometry" />
        </mxCell>
        <mxCell id="5GykpBqM6NqBCuTMOYbl-14" value="" style="edgeStyle=orthogonalEdgeStyle;rounded=0;orthogonalLoop=1;jettySize=auto;html=1;" edge="1" parent="1" source="5GykpBqM6NqBCuTMOYbl-8" target="5GykpBqM6NqBCuTMOYbl-13">
          <mxGeometry relative="1" as="geometry" />
        </mxCell>
        <mxCell id="5GykpBqM6NqBCuTMOYbl-8" value="新生成的构型能量低" style="rhombus;whiteSpace=wrap;html=1;rounded=1;" vertex="1" parent="1">
          <mxGeometry x="330" y="390" width="140" height="80" as="geometry" />
        </mxCell>
        <mxCell id="5GykpBqM6NqBCuTMOYbl-15" style="edgeStyle=orthogonalEdgeStyle;rounded=0;orthogonalLoop=1;jettySize=auto;html=1;exitX=0.5;exitY=0;exitDx=0;exitDy=0;entryX=0;entryY=0.5;entryDx=0;entryDy=0;" edge="1" parent="1" source="5GykpBqM6NqBCuTMOYbl-10" target="5GykpBqM6NqBCuTMOYbl-2">
          <mxGeometry relative="1" as="geometry">
            <mxPoint x="400" y="110" as="targetPoint" />
            <Array as="points">
              <mxPoint x="210" y="170" />
            </Array>
          </mxGeometry>
        </mxCell>
        <mxCell id="5GykpBqM6NqBCuTMOYbl-10" value="接受新构型" style="whiteSpace=wrap;html=1;rounded=1;" vertex="1" parent="1">
          <mxGeometry x="150" y="400" width="120" height="60" as="geometry" />
        </mxCell>
        <mxCell id="5GykpBqM6NqBCuTMOYbl-12" value="是" style="text;html=1;align=center;verticalAlign=middle;resizable=0;points=[];autosize=1;strokeColor=none;fillColor=none;" vertex="1" parent="1">
          <mxGeometry x="290" y="400" width="40" height="30" as="geometry" />
        </mxCell>
        <mxCell id="5GykpBqM6NqBCuTMOYbl-18" value="" style="edgeStyle=orthogonalEdgeStyle;rounded=0;orthogonalLoop=1;jettySize=auto;html=1;" edge="1" parent="1" source="5GykpBqM6NqBCuTMOYbl-13" target="5GykpBqM6NqBCuTMOYbl-17">
          <mxGeometry relative="1" as="geometry" />
        </mxCell>
        <mxCell id="5GykpBqM6NqBCuTMOYbl-13" value="&lt;div&gt;计算玻尔兹曼因子&lt;/div&gt;&lt;div&gt;生成随机数&lt;br&gt;&lt;/div&gt;" style="whiteSpace=wrap;html=1;rounded=1;" vertex="1" parent="1">
          <mxGeometry x="340" y="510" width="120" height="60" as="geometry" />
        </mxCell>
        <mxCell id="5GykpBqM6NqBCuTMOYbl-16" value="否" style="text;html=1;align=center;verticalAlign=middle;resizable=0;points=[];autosize=1;strokeColor=none;fillColor=none;" vertex="1" parent="1">
          <mxGeometry x="394" y="470" width="40" height="30" as="geometry" />
        </mxCell>
        <mxCell id="5GykpBqM6NqBCuTMOYbl-19" style="edgeStyle=orthogonalEdgeStyle;rounded=0;orthogonalLoop=1;jettySize=auto;html=1;exitX=0;exitY=0.5;exitDx=0;exitDy=0;entryX=0.5;entryY=1;entryDx=0;entryDy=0;" edge="1" parent="1" source="5GykpBqM6NqBCuTMOYbl-17" target="5GykpBqM6NqBCuTMOYbl-10">
          <mxGeometry relative="1" as="geometry" />
        </mxCell>
        <mxCell id="5GykpBqM6NqBCuTMOYbl-22" value="" style="edgeStyle=orthogonalEdgeStyle;rounded=0;orthogonalLoop=1;jettySize=auto;html=1;" edge="1" parent="1" source="5GykpBqM6NqBCuTMOYbl-17" target="5GykpBqM6NqBCuTMOYbl-21">
          <mxGeometry relative="1" as="geometry" />
        </mxCell>
        <mxCell id="5GykpBqM6NqBCuTMOYbl-17" value="&lt;div&gt;玻尔兹曼因子&lt;/div&gt;&lt;div&gt;小于随机数&lt;br&gt;&lt;/div&gt;" style="rhombus;whiteSpace=wrap;html=1;rounded=1;" vertex="1" parent="1">
          <mxGeometry x="330" y="600" width="140" height="80" as="geometry" />
        </mxCell>
        <mxCell id="5GykpBqM6NqBCuTMOYbl-20" value="是" style="text;html=1;align=center;verticalAlign=middle;resizable=0;points=[];autosize=1;strokeColor=none;fillColor=none;" vertex="1" parent="1">
          <mxGeometry x="270" y="610" width="40" height="30" as="geometry" />
        </mxCell>
        <mxCell id="5GykpBqM6NqBCuTMOYbl-25" style="edgeStyle=orthogonalEdgeStyle;rounded=0;orthogonalLoop=1;jettySize=auto;html=1;exitX=0.5;exitY=0;exitDx=0;exitDy=0;entryX=1;entryY=0.5;entryDx=0;entryDy=0;" edge="1" parent="1" source="5GykpBqM6NqBCuTMOYbl-21" target="5GykpBqM6NqBCuTMOYbl-2">
          <mxGeometry relative="1" as="geometry" />
        </mxCell>
        <mxCell id="5GykpBqM6NqBCuTMOYbl-21" value="放弃新构型" style="whiteSpace=wrap;html=1;rounded=1;" vertex="1" parent="1">
          <mxGeometry x="540" y="610" width="120" height="60" as="geometry" />
        </mxCell>
        <mxCell id="5GykpBqM6NqBCuTMOYbl-26" value="否" style="text;html=1;align=center;verticalAlign=middle;resizable=0;points=[];autosize=1;strokeColor=none;fillColor=none;" vertex="1" parent="1">
          <mxGeometry x="480" y="615" width="40" height="30" as="geometry" />
        </mxCell>
      </root>
    </mxGraphModel>
  </diagram>
</mxfile>
